<?xml version="1.0" encoding="UTF-8" standalone="no"?>
<svg width="24px" height="24px" viewBox="0 0 24 24" version="1.1" xmlns="http://www.w3.org/2000/svg" xmlns:xlink="http://www.w3.org/1999/xlink" xmlns:sketch="http://www.bohemiancoding.com/sketch/ns">
    <!-- Generator: Sketch 3.3.2 (12043) - http://www.bohemiancoding.com/sketch -->
    <title>cd-icon-message</title>
    <desc>Created with Sketch.</desc>
    <defs></defs>
    <g id="Page-1" stroke="none" stroke-width="1" fill="none" fill-rule="evenodd" sketch:type="MSPage">
        <g id="cd-icon-message" sketch:type="MSLayerGroup" transform="translate(1.000000, 0.000000)" fill="#D8D8D8">
            <path d="M9.3241442,16.2773572 L5.6171442,17.5503572 C5.2511442,17.6753572 4.9001442,17.3253572 5.0261442,16.9583572 L6.2981442,13.2513572 C6.3881442,12.9913572 6.7201442,12.9143572 6.9151442,13.1093572 L9.4671442,15.6613572 C9.6621442,15.8563572 9.5851442,16.1883572 9.3241442,16.2773572 Z M19.2611442,6.48435724 L10.7871442,14.9583572 C10.5291442,15.2163572 10.1191442,15.2233572 9.8701442,14.9743572 L7.4881442,12.5923572 C7.2391442,12.3433572 7.2461442,11.9323572 7.5031442,11.6753572 L15.9771442,3.20135724 C16.2351442,2.94335724 16.6451442,2.93635724 16.8941442,3.18535724 L19.2771442,5.56835724 C19.5251442,5.81635724 19.5181442,6.22735724 19.2611442,6.48435724 Z M22.2561442,3.71635724 L20.8591442,5.11435724 C20.6021442,5.37135724 20.1841442,5.37135724 19.9271442,5.11435724 L17.4621442,2.64935724 C17.2041442,2.39135724 17.2041442,1.97435724 17.4621442,1.71635724 L18.8591442,0.319357241 C19.3111442,-0.132642759 20.0441442,-0.132642759 20.4961442,0.319357241 L22.2561442,2.08035724 C22.7081442,2.53235724 22.7081442,3.26435724 22.2561442,3.71635724 Z M12.6571442,2.96035724 C12.6571442,2.43535724 12.2311442,1.99135724 11.7071442,1.99135724 L0.960144197,1.99135724 C0.157144197,1.99135724 -0.492855803,2.64135724 -0.492855803,3.44435724 L-0.492855803,21.5803572 C-0.492855803,22.3833572 0.157144197,23.0343572 0.960144197,23.0343572 L19.0961442,23.0343572 C19.8991442,23.0343572 20.5501442,22.3833572 20.5501442,21.5803572 L20.5501442,10.8133572 C20.5501442,10.2883572 20.1011442,9.86335724 19.5761442,9.86335724 C19.0511442,9.86335724 18.6261442,10.2883572 18.6261442,10.8133572 L18.6261442,20.3723572 C18.6261442,20.8083572 18.2731442,21.1613572 17.8371442,21.1613572 L2.1641442,21.1613572 C1.7291442,21.1613572 1.3761442,20.8083572 1.3761442,20.3723572 L1.3761442,4.69935724 C1.3761442,4.26435724 1.7291442,3.91135724 2.1641442,3.91135724 L11.7071442,3.91135724 C12.2311442,3.91135724 12.6571442,3.48535724 12.6571442,2.96035724 Z" id="compose" sketch:type="MSShapeGroup"></path>
        </g>
    </g>
</svg>