<?xml version="1.0" encoding="UTF-8" standalone="no"?>
<svg width="23px" height="16px" viewBox="0 0 23 16" version="1.1" xmlns="http://www.w3.org/2000/svg" xmlns:xlink="http://www.w3.org/1999/xlink" xmlns:sketch="http://www.bohemiancoding.com/sketch/ns">
    <!-- Generator: Sketch 3.3.2 (12043) - http://www.bohemiancoding.com/sketch -->
    <title>cd-icon-email</title>
    <desc>Created with Sketch.</desc>
    <defs></defs>
    <g id="Page-1" stroke="none" stroke-width="1" fill="none" fill-rule="evenodd" sketch:type="MSPage">
        <g id="cd-icon-email" sketch:type="MSLayerGroup" fill="#D8D8D8">
            <path d="M12.317,10.528 L21.71,3.103 C22.141,2.762 22.776,3.07 22.776,3.619 L22.776,14.04 C22.776,14.785 22.172,15.389 21.427,15.389 L1.349,15.389 C0.604,15.389 0,14.785 0,14.04 L0,3.621 C0,3.071 0.635,2.764 1.066,3.105 L10.44,10.527 C10.99,10.962 11.767,10.962 12.317,10.528 L12.317,10.528 Z M1.904,0.611 C1.287,0.611 1.021,1.395 1.511,1.771 L10.727,8.843 C11.11,9.137 11.642,9.137 12.025,8.844 L21.261,1.771 C21.752,1.395 21.486,0.611 20.868,0.611 L1.904,0.611 L1.904,0.611 Z" id="envelope" sketch:type="MSShapeGroup"></path>
        </g>
    </g>
</svg>