<?xml version="1.0" encoding="UTF-8" standalone="no"?>
<svg width="18px" height="22px" viewBox="0 0 18 22" version="1.1" xmlns="http://www.w3.org/2000/svg" xmlns:xlink="http://www.w3.org/1999/xlink" xmlns:sketch="http://www.bohemiancoding.com/sketch/ns">
    <!-- Generator: Sketch 3.3.2 (12043) - http://www.bohemiancoding.com/sketch -->
    <title>cd-icon-password</title>
    <desc>Created with Sketch.</desc>
    <defs></defs>
    <g id="Page-1" stroke="none" stroke-width="1" fill="none" fill-rule="evenodd" sketch:type="MSPage">
        <path d="M16.1450625,9.3449375 C15.4580625,9.3449375 15.2290625,9.0099375 15.2290625,8.5959375 L15.2290625,7.2719375 C15.2290625,3.4409375 12.3940625,0.3359375 8.8980625,0.3359375 C5.4020625,0.3359375 2.5680625,3.4409375 2.5680625,7.2719375 L2.5680625,8.5959375 C2.5680625,9.0099375 2.4270625,9.3449375 1.6830625,9.3449375 C1.1290625,9.3449375 0.6800625,9.7949375 0.6800625,10.3489375 L0.6800625,20.8409375 C0.6800625,21.3959375 1.1290625,21.8449375 1.6830625,21.8449375 L16.1450625,21.8449375 C16.6990625,21.8449375 17.1480625,21.3959375 17.1480625,20.8409375 L17.1480625,10.3489375 C17.1480625,9.7949375 16.6990625,9.3449375 16.1450625,9.3449375 L16.1450625,9.3449375 Z M9.7320625,15.5289375 C9.5720625,15.6389375 9.4830625,15.8249375 9.4830625,16.0179375 L9.4830625,17.5339375 C9.4830625,17.8639375 9.1990625,18.1289375 8.8620625,18.0959375 C8.5680625,18.0679375 8.3530625,17.8049375 8.3530625,17.5099375 L8.3530625,16.0239375 C8.3530625,15.8299375 8.2630625,15.6429375 8.1020625,15.5339375 C7.7140625,15.2709375 7.4610625,14.8249375 7.4660625,14.3199375 C7.4730625,13.5619375 8.0880625,12.9239375 8.8450625,12.8889375 C9.6760625,12.8499375 10.3620625,13.5129375 10.3620625,14.3349375 C10.3620625,14.8309375 10.1120625,15.2679375 9.7320625,15.5289375 L9.7320625,15.5289375 Z M12.9740625,8.5959375 C12.9740625,9.0099375 12.6380625,9.3449375 12.2240625,9.3449375 L5.5720625,9.3449375 C5.1580625,9.3449375 4.8220625,9.0099375 4.8220625,8.5959375 L4.8220625,6.9709375 C4.8220625,4.5679375 6.6470625,2.6199375 8.8980625,2.6199375 C11.1490625,2.6199375 12.9740625,4.5679375 12.9740625,6.9709375 L12.9740625,8.5959375 L12.9740625,8.5959375 Z" id="cd-icon-password" fill="#D8D8D8" sketch:type="MSShapeGroup"></path>
    </g>
</svg>