<?xml version="1.0" encoding="UTF-8" standalone="no"?>
<svg width="22px" height="22px" viewBox="0 0 22 22" version="1.1" xmlns="http://www.w3.org/2000/svg" xmlns:xlink="http://www.w3.org/1999/xlink" xmlns:sketch="http://www.bohemiancoding.com/sketch/ns">
    <!-- Generator: Sketch 3.3.2 (12043) - http://www.bohemiancoding.com/sketch -->
    <title>cd-icon-phone</title>
    <desc>Created with Sketch.</desc>
    <defs></defs>
    <g id="Page-1" stroke="none" stroke-width="1" fill="none" fill-rule="evenodd" sketch:type="MSPage">
        <path d="M6.70090618,15.1443839 C11.7359062,20.1793839 16.2449062,21.6933839 16.8719062,21.7823839 C17.4989062,21.8723839 18.5269062,22.0743839 20.0179062,20.5833839 C21.7639062,18.8373839 21.9399062,17.9203839 20.9789062,16.9593839 C20.0179062,15.9983839 17.6309062,14.5443839 16.9819062,14.1693839 C16.3319062,13.7943839 15.7809062,13.9153839 15.3129062,14.2413839 C14.8449062,14.5673839 14.3049062,14.9823839 13.8049062,15.3443839 C13.3049062,15.7063839 12.6799062,15.8593839 12.0089062,15.4343839 C11.3379062,15.0083839 10.2029062,14.2113839 8.91790618,12.9273839 C7.63290618,11.6423839 6.83590618,10.5073839 6.41090618,9.83638395 C5.98590618,9.16538395 6.13890618,8.54038395 6.50090618,8.04038395 C6.86290618,7.54038395 7.27790618,7.00038395 7.60390618,6.53238395 C7.92990618,6.06438395 8.04990618,5.51338395 7.67590618,4.86338395 C7.30090618,4.21438395 5.84690618,1.82738395 4.88590618,0.86638395 C3.92490618,-0.0946160503 3.00790618,0.0813839497 1.26190618,1.82738395 C-0.229093819,3.31838395 -0.0270938192,4.34638395 0.0619061808,4.97338395 C0.151906181,5.60038395 1.66590618,10.1093839 6.70090618,15.1443839" id="cd-icon-phone" fill="#D8D8D8" sketch:type="MSShapeGroup"></path>
    </g>
</svg>