<?xml version="1.0" encoding="UTF-8" standalone="no"?>
<svg width="16px" height="16px" viewBox="0 0 16 16" version="1.1" xmlns="http://www.w3.org/2000/svg" xmlns:xlink="http://www.w3.org/1999/xlink">
    <!-- Generator: Sketch 3.6.1 (26313) - http://www.bohemiancoding.com/sketch -->
    <title>Group</title>
    <desc>Created with Sketch.</desc>
    <defs></defs>
    <g id="SEO" stroke="none" stroke-width="1" fill="none" fill-rule="evenodd">
        <g id="Estimates-Model-Copy" transform="translate(-816.000000, -622.000000)" fill="#CAD2DB">
            <g id="Group" transform="translate(816.000000, 622.000000)">
                <path d="M8,15 L8,15 C11.8659932,15 15,11.8659932 15,8 C15,4.13400675 11.8659932,1 8,1 C4.13400675,1 1,4.13400675 1,8 C1,11.8659932 4.13400675,15 8,15 L8,15 Z M8,16 L8,16 C3.581722,16 0,12.418278 0,8 C0,3.581722 3.581722,0 8,0 C12.418278,0 16,3.581722 16,8 C16,12.418278 12.418278,16 8,16 L8,16 Z" id="Oval-59"></path>
                <path d="M6.3239233,4.95338366 L9.70904809,8.33850846 L9.70904809,7.63140168 L6.37344317,10.9670066 L7.08054995,11.6741134 L10.4161549,8.33850846 L10.7697083,7.98495507 L10.4161549,7.63140168 L7.03103008,4.24627688 L6.3239233,4.95338366 L6.3239233,4.95338366 Z" id="Path-666"></path>
            </g>
        </g>
    </g>
</svg>